<?xml version="1.0" encoding="UTF-8" standalone="no"?>
<!--Generator: Apple Native CoreSVG 341-->

<svg
   version="1.1"
   viewBox="0 0 15.4807 18.5387"
   id="svg1"
   sodipodi:docname="arrow-down.svg"
   inkscape:version="1.4.2 (f4327f4, 2025-05-13)"
   xmlns:inkscape="http://www.inkscape.org/namespaces/inkscape"
   xmlns:sodipodi="http://sodipodi.sourceforge.net/DTD/sodipodi-0.dtd"
   xmlns="http://www.w3.org/2000/svg"
   xmlns:svg="http://www.w3.org/2000/svg">
  <defs
     id="defs1" />
  <sodipodi:namedview
     id="namedview1"
     pagecolor="#ffffff"
     bordercolor="#999999"
     borderopacity="1"
     inkscape:showpageshadow="2"
     inkscape:pageopacity="0"
     inkscape:pagecheckerboard="0"
     inkscape:deskcolor="#d1d1d1"
     inkscape:zoom="43.53056"
     inkscape:cx="7.7302015"
     inkscape:cy="9.2693501"
     inkscape:window-width="1920"
     inkscape:window-height="1009"
     inkscape:window-x="-8"
     inkscape:window-y="-8"
     inkscape:window-maximized="1"
     inkscape:current-layer="svg1" />
  <g
     id="g1">
    <rect
       height="18.5387"
       opacity="0"
       width="15.4807"
       x="0"
       y="0"
       id="rect1" />
    <path
       d="M7.55878 18.5387C7.8539 18.5387 8.14003 18.4199 8.3537 18.1982L14.7924 11.7498C15.0166 11.5193 15.1193 11.2633 15.1193 10.9779C15.1193 10.3834 14.6869 9.94376 14.0984 9.94376C13.7955 9.94376 13.5322 10.0588 13.3408 10.252L11.123 12.4395L7.55077 16.4318L3.99276 12.4395L1.7785 10.252C1.59335 10.0588 1.32382 9.94376 1.02089 9.94376C0.432419 9.94376 0 10.3834 0 10.9779C0 11.2633 0.110741 11.5193 0.333201 11.7498L6.76387 18.1982C6.97578 18.4199 7.26367 18.5387 7.55878 18.5387ZM7.55878 17.3602C8.12323 17.3602 8.50604 16.9721 8.50604 16.3936L8.62303 13.211L8.62303 1.07909C8.62303 0.437692 8.18788 0 7.55878 0C6.92969 0 6.49278 0.437692 6.49278 1.07909L6.49278 13.211L6.60977 16.3936C6.60977 16.9721 6.99258 17.3602 7.55878 17.3602Z"
       fill="white"
       fill-opacity="0.85"
       id="path1"
       style="fill:#ffffff;fill-opacity:1" />
  </g>
</svg>
